<?xml version="1.0" standalone="no"?><!DOCTYPE svg PUBLIC "-//W3C//DTD SVG 1.1//EN" "http://www.w3.org/Graphics/SVG/1.1/DTD/svg11.dtd"><svg t="1681265357707" class="icon" viewBox="0 0 1024 1024" version="1.1" xmlns="http://www.w3.org/2000/svg" p-id="10993" xmlns:xlink="http://www.w3.org/1999/xlink" width="200" height="200"><path d="M370.833774 561.737143l-266.313143 266.313143q-5.705143 5.705143-13.165714 5.705143t-13.165714-5.705143l-28.598857-28.598857q-5.705143-5.705143-5.705143-13.165714t5.705143-13.165714l224.548571-224.548571-224.548571-224.548571q-5.705143-5.705143-5.705143-13.165714t5.705143-13.165714l28.598857-28.598857q5.705143-5.705143 13.165714-5.705143t13.165714 5.705143l266.313143 266.313143q5.705143 5.705143 5.705143 13.165714t-5.705143 13.165714zM987.428059 822.857143l0 36.571429q0 7.972571-5.12 13.165714t-13.165714 5.12l-548.571429 0q-7.972571 0-13.165714-5.12t-5.12-13.165714l0-36.571429q0-7.972571 5.12-13.165714t13.165714-5.12l548.571429 0q7.972571 0 13.165714 5.12t5.12 13.165714z" fill="#444444" p-id="10994"></path></svg>